<svg width="373" height="490" viewBox="0 0 373 490" fill="none" xmlns="http://www.w3.org/2000/svg">
<path d="M8.06047 168.021C8.06047 168.021 56.6526 188.342 19.427 250.52C-17.7986 312.699 23.9736 411.795 124.966 445.663C225.958 479.531 327.5 436 358.5 366C376.5 310.5 379.5 281.5 354.5 251C357 255.5 359.517 260.89 359 267.5C358.139 278.521 352.851 286.367 342.5 294.5C335.5 300 326.5 302.5 312.515 298C279.649 287.425 302.876 240.3 312.515 216.081C326.973 179.716 333.941 126.375 286.701 97.2627C286.701 97.2627 305.683 120.044 282.155 142.208C282.155 142.208 243.429 161.247 235.836 185.586C235.836 185.586 276.846 72.0208 175.093 0C184.788 17.132 176.343 40.927 168.045 56.99C157.815 76.7024 141.106 91.5582 127.944 109.649C114.679 127.887 106.688 148.327 104.574 169.431C103.438 181.08 116.395 229.02 90.0591 229.02C56.6527 228.983 50.5829 169.873 8.06047 168.021Z" fill="#FFB703"/>
<path d="M348 385C359.846 369.032 366.551 343.441 370 324.5C357.258 346.883 353.577 362.397 329 376C237.876 426.62 115.91 415.157 56.2836 338.059C45.6065 324.253 35.8599 307.613 33.08 291.304C30.1299 273.983 37.6186 256.616 37.6186 239.231C37.6186 236.875 31.8432 194.345 29.9597 195.008C33.8402 207.837 32.7056 225.821 17.9324 250.524C-9.42159 296.255 11.5 359.5 46.5 399L3.96225 482.246C2.40643 485.291 5.14052 488.757 8.464 487.954L152.611 453.11C246.504 471.351 309.603 436.726 348 385Z" fill="#FB8500"/>
<path opacity="0.1" d="M304.056 293.136C303.363 292.878 303.182 291.786 302.5 291.5C287 276 302.582 240.307 312.215 216.088C326.663 179.721 333.627 126.37 286.418 97.2749C286.418 97.2749 305.388 120.048 281.874 142.212C281.874 142.212 243.185 161.252 235.597 185.592C235.597 185.592 276.57 72.0231 174.894 0C184.572 17.1325 176.132 40.9283 167.84 56.9918C157.617 76.7048 140.919 91.561 127.765 109.652C114.507 127.89 106.526 148.332 104.422 169.436C103.286 181.085 116.224 229.018 89.9054 229.018C56.521 229.018 50.4438 169.915 7.96075 168.063C7.96075 168.063 56.521 188.384 19.3199 250.565C2.34935 278.932 1.98581 314.966 16.003 349.019C45.0519 356.927 75.4856 360.973 106.126 361C190.865 360.972 250.384 341.354 304.056 293.136Z" fill="#C1121F"/>
</svg>
